<svg xmlns="http://www.w3.org/2000/svg" xmlns:xlink="http://www.w3.org/1999/xlink" width="324" zoomAndPan="magnify" viewBox="0 0 242.87999 60" height="80" preserveAspectRatio="xMidYMid meet" version="1.0"><defs><g/><clipPath id="3294c1b2ac"><path d="M 35 19 L 43.476562 19 L 43.476562 28 L 35 28 Z M 35 19 " clip-rule="nonzero"/></clipPath><clipPath id="356b534982"><path d="M 33 29 L 43.476562 29 L 43.476562 38 L 33 38 Z M 33 29 " clip-rule="nonzero"/></clipPath><clipPath id="d9db513b5a"><path d="M 26 46 L 41 46 L 41 51.1875 L 26 51.1875 Z M 26 46 " clip-rule="nonzero"/></clipPath><clipPath id="0e349e53d5"><path d="M 4.496094 28 L 26 28 L 26 36 L 4.496094 36 Z M 4.496094 28 " clip-rule="nonzero"/></clipPath><clipPath id="f9b3da5fda"><path d="M 13 8.457031 L 22 8.457031 L 22 14 L 13 14 Z M 13 8.457031 " clip-rule="nonzero"/></clipPath></defs><g fill="#0c80d7" fill-opacity="1"><g transform="translate(53.445925, 41.180145)"><g><path d="M 21.632812 -25.796875 L 10.238281 -25.796875 C 8.859375 -25.796875 7.671875 -25.609375 6.699219 -25.265625 C 5.699219 -24.890625 4.882812 -24.292969 4.289062 -23.511719 C 3.664062 -22.730469 3.191406 -21.695312 2.910156 -20.445312 C 2.628906 -19.222656 2.503906 -17.71875 2.503906 -15.996094 L 2.503906 -9.800781 C 2.503906 -8.046875 2.628906 -6.542969 2.910156 -5.289062 C 3.191406 -4.070312 3.664062 -3.035156 4.289062 -2.222656 C 4.914062 -1.441406 5.730469 -0.84375 6.699219 -0.5 C 7.671875 -0.15625 8.859375 0.03125 10.238281 0.03125 L 21.632812 0.03125 C 21.882812 0.03125 22.511719 -0.09375 22.511719 -1.0625 L 22.511719 -3.539062 C 22.511719 -4.507812 21.882812 -4.632812 21.632812 -4.632812 L 10.394531 -4.632812 C 9.738281 -4.632812 9.171875 -4.695312 8.765625 -4.851562 C 8.359375 -4.976562 8.078125 -5.195312 7.828125 -5.542969 C 7.578125 -5.855469 7.417969 -6.324219 7.292969 -6.917969 C 7.199219 -7.546875 7.136719 -8.328125 7.136719 -9.265625 L 7.136719 -16.5625 C 7.136719 -17.5 7.199219 -18.285156 7.292969 -18.878906 C 7.417969 -19.472656 7.578125 -19.910156 7.828125 -20.253906 C 8.078125 -20.601562 8.359375 -20.820312 8.765625 -20.945312 C 9.171875 -21.101562 9.738281 -21.164062 10.394531 -21.164062 L 21.632812 -21.164062 C 21.882812 -21.164062 22.511719 -21.289062 22.511719 -22.289062 L 22.511719 -24.703125 C 22.511719 -25.671875 21.882812 -25.796875 21.632812 -25.796875 Z M 21.632812 -25.796875 "/></g></g></g><g fill="#0c80d7" fill-opacity="1"><g transform="translate(77.612533, 41.180145)"><g><path d="M 23.824219 -23.511719 C 23.199219 -24.292969 22.382812 -24.890625 21.382812 -25.265625 C 20.414062 -25.609375 19.222656 -25.796875 17.84375 -25.796875 L 10.207031 -25.796875 C 8.828125 -25.796875 7.671875 -25.609375 6.699219 -25.265625 C 5.699219 -24.890625 4.882812 -24.292969 4.257812 -23.511719 C 3.664062 -22.730469 3.191406 -21.695312 2.910156 -20.445312 C 2.628906 -19.222656 2.503906 -17.75 2.503906 -15.996094 L 2.503906 -9.800781 C 2.503906 -8.046875 2.628906 -6.542969 2.910156 -5.320312 C 3.191406 -4.070312 3.664062 -3.035156 4.257812 -2.253906 C 4.882812 -1.441406 5.699219 -0.84375 6.699219 -0.5 C 7.640625 -0.15625 8.828125 0.03125 10.207031 0.03125 L 17.84375 0.03125 C 19.222656 0.03125 20.414062 -0.15625 21.382812 -0.5 C 22.382812 -0.84375 23.199219 -1.441406 23.824219 -2.222656 C 24.449219 -3.035156 24.890625 -4.070312 25.171875 -5.320312 C 25.421875 -6.542969 25.578125 -8.046875 25.578125 -9.800781 L 25.578125 -15.996094 C 25.578125 -17.71875 25.421875 -19.222656 25.171875 -20.445312 C 24.890625 -21.695312 24.449219 -22.730469 23.824219 -23.511719 Z M 20.914062 -16.53125 L 20.914062 -9.234375 C 20.914062 -8.328125 20.882812 -7.546875 20.757812 -6.917969 C 20.664062 -6.355469 20.476562 -5.855469 20.222656 -5.542969 C 20.003906 -5.195312 19.691406 -4.976562 19.285156 -4.851562 C 18.878906 -4.695312 18.347656 -4.632812 17.6875 -4.632812 L 10.363281 -4.632812 C 9.707031 -4.632812 9.171875 -4.695312 8.765625 -4.851562 C 8.359375 -4.976562 8.046875 -5.195312 7.828125 -5.542969 C 7.578125 -5.855469 7.417969 -6.355469 7.292969 -6.917969 C 7.199219 -7.546875 7.136719 -8.328125 7.136719 -9.234375 L 7.136719 -16.53125 C 7.136719 -17.4375 7.199219 -18.222656 7.292969 -18.847656 C 7.417969 -19.441406 7.578125 -19.910156 7.828125 -20.253906 C 8.046875 -20.570312 8.359375 -20.789062 8.765625 -20.945312 C 9.171875 -21.070312 9.707031 -21.164062 10.363281 -21.164062 L 17.6875 -21.164062 C 18.347656 -21.164062 18.878906 -21.070312 19.285156 -20.945312 C 19.691406 -20.789062 20.003906 -20.570312 20.222656 -20.253906 C 20.476562 -19.910156 20.664062 -19.441406 20.757812 -18.847656 C 20.882812 -18.222656 20.914062 -17.4375 20.914062 -16.53125 Z M 20.914062 -16.53125 "/></g></g></g><g fill="#0c80d7" fill-opacity="1"><g transform="translate(104.846959, 41.180145)"><g><path d="M 28.644531 -25.796875 L 25.828125 -25.796875 C 25.390625 -25.796875 25.046875 -25.765625 24.734375 -25.671875 C 24.417969 -25.578125 24.136719 -25.421875 23.886719 -25.203125 C 23.667969 -24.953125 23.449219 -24.671875 23.261719 -24.292969 C 23.074219 -23.917969 22.917969 -23.449219 22.730469 -22.855469 L 17.1875 -9.015625 C 17.15625 -8.890625 17.125 -8.890625 17.09375 -8.890625 L 16.78125 -8.890625 C 16.78125 -8.890625 16.71875 -8.890625 16.6875 -9.015625 L 11.175781 -22.855469 C 10.988281 -23.449219 10.800781 -23.917969 10.644531 -24.292969 C 10.457031 -24.671875 10.238281 -24.953125 10.019531 -25.203125 C 9.769531 -25.421875 9.453125 -25.578125 9.140625 -25.671875 C 8.828125 -25.765625 8.453125 -25.796875 8.046875 -25.796875 L 5.164062 -25.796875 C 4.101562 -25.796875 3.382812 -25.453125 3.003906 -24.796875 C 2.660156 -24.199219 2.503906 -23.199219 2.503906 -21.757812 L 2.503906 -1.0625 C 2.503906 -0.09375 3.128906 0.03125 3.414062 0.03125 L 6.105469 0.03125 C 6.386719 0.03125 6.980469 -0.09375 6.980469 -1.0625 L 6.980469 -19.878906 C 6.980469 -19.910156 6.980469 -19.941406 6.980469 -19.941406 L 7.136719 -19.941406 C 7.167969 -19.941406 7.199219 -19.941406 7.230469 -19.847656 L 12.585938 -6.605469 C 12.804688 -5.949219 13.023438 -5.386719 13.242188 -4.914062 C 13.492188 -4.445312 13.742188 -4.070312 13.996094 -3.757812 C 14.308594 -3.445312 14.621094 -3.191406 14.996094 -3.066406 C 15.371094 -2.941406 15.777344 -2.878906 16.25 -2.878906 L 17.53125 -2.878906 C 18 -2.878906 18.441406 -2.941406 18.785156 -3.066406 C 19.160156 -3.191406 19.503906 -3.445312 19.785156 -3.757812 C 20.035156 -4.070312 20.320312 -4.445312 20.539062 -4.914062 C 20.757812 -5.386719 20.976562 -5.949219 21.195312 -6.605469 L 26.578125 -19.878906 C 26.578125 -19.941406 26.609375 -19.941406 26.640625 -19.941406 L 26.800781 -19.941406 C 26.800781 -19.941406 26.800781 -19.910156 26.800781 -19.878906 L 26.800781 -1.0625 C 26.800781 -0.09375 27.425781 0.03125 27.675781 0.03125 L 30.367188 0.03125 C 30.648438 0.03125 31.277344 -0.09375 31.277344 -1.0625 L 31.277344 -21.757812 C 31.277344 -23.199219 31.121094 -24.199219 30.773438 -24.796875 C 30.398438 -25.453125 29.679688 -25.796875 28.644531 -25.796875 Z M 28.644531 -25.796875 "/></g></g></g><g fill="#0c80d7" fill-opacity="1"><g transform="translate(137.778776, 41.180145)"><g><path d="M 17.84375 -25.796875 L 3.382812 -25.796875 C 3.128906 -25.796875 2.503906 -25.703125 2.503906 -24.703125 L 2.503906 -22.226562 C 2.503906 -21.257812 3.128906 -21.164062 3.382812 -21.164062 L 17.03125 -21.164062 C 17.8125 -21.164062 18.378906 -20.945312 18.691406 -20.476562 C 19.035156 -20.003906 19.191406 -19.253906 19.191406 -18.222656 C 19.191406 -17.1875 19.035156 -16.4375 18.691406 -15.964844 C 18.378906 -15.496094 17.8125 -15.277344 17.03125 -15.277344 L 3.382812 -15.277344 C 3.128906 -15.277344 2.503906 -15.183594 2.503906 -14.214844 L 2.503906 -1.0625 C 2.503906 -0.09375 3.128906 0.03125 3.382812 0.03125 L 6.261719 0.03125 C 6.511719 0.03125 7.136719 -0.09375 7.136719 -1.0625 L 7.136719 -10.644531 L 17.84375 -10.675781 C 19.972656 -10.675781 21.507812 -11.332031 22.449219 -12.648438 C 23.386719 -13.964844 23.824219 -15.839844 23.824219 -18.316406 L 23.824219 -18.125 C 23.824219 -20.632812 23.386719 -22.511719 22.449219 -23.792969 C 21.507812 -25.140625 19.972656 -25.796875 17.84375 -25.796875 Z M 17.84375 -25.796875 "/></g></g></g><g fill="#0c80d7" fill-opacity="1"><g transform="translate(163.260163, 41.180145)"><g><path d="M 17.625 -15.402344 L 8.234375 -15.402344 C 7.765625 -15.402344 7.167969 -15.589844 7.167969 -17.125 L 7.167969 -19.441406 C 7.167969 -20.003906 7.261719 -20.445312 7.417969 -20.757812 C 7.546875 -20.945312 7.734375 -21.164062 8.265625 -21.164062 L 21.007812 -21.164062 C 21.257812 -21.164062 21.882812 -21.257812 21.882812 -22.226562 L 21.882812 -24.734375 C 21.882812 -25.703125 21.257812 -25.796875 21.007812 -25.796875 L 7.515625 -25.796875 C 5.792969 -25.796875 4.539062 -25.234375 3.726562 -24.074219 C 2.910156 -22.949219 2.503906 -21.445312 2.503906 -19.628906 L 2.503906 -17.25 C 2.503906 -15.089844 2.941406 -13.335938 3.726562 -12.242188 C 4.695312 -10.957031 6.136719 -10.769531 7.449219 -10.769531 L 16.84375 -10.769531 C 17.3125 -10.769531 17.9375 -10.582031 17.9375 -9.046875 L 17.9375 -6.355469 C 17.9375 -5.792969 17.84375 -5.355469 17.65625 -5.039062 C 17.53125 -4.851562 17.34375 -4.632812 16.8125 -4.632812 L 3.445312 -4.632812 C 3.160156 -4.632812 2.535156 -4.539062 2.535156 -3.570312 L 2.535156 -1.0625 C 2.535156 -0.09375 3.160156 0 3.445312 0 L 17.5625 0 C 19.285156 0 20.570312 -0.59375 21.382812 -1.753906 C 22.164062 -2.878906 22.574219 -4.351562 22.574219 -6.167969 L 22.574219 -8.921875 C 22.574219 -10.957031 22.164062 -12.554688 21.351562 -13.679688 C 20.507812 -14.808594 19.253906 -15.402344 17.625 -15.402344 Z M 17.625 -15.402344 "/></g></g></g><g fill="#0c80d7" fill-opacity="1"><g transform="translate(187.489381, 41.180145)"><g><path d="M 25.671875 -25.796875 L 22.195312 -25.796875 C 21.914062 -25.796875 21.539062 -25.703125 21.289062 -25.234375 L 14.402344 -12.679688 L 7.578125 -25.203125 C 7.324219 -25.703125 6.949219 -25.796875 6.667969 -25.796875 L 3.097656 -25.796875 C 2.816406 -25.796875 2.597656 -25.640625 2.535156 -25.359375 C 2.472656 -25.140625 2.503906 -24.890625 2.628906 -24.671875 L 12.023438 -7.921875 L 12.023438 -1.0625 C 12.023438 -0.09375 12.648438 0 12.898438 0 L 15.777344 0 C 16.03125 0 16.65625 -0.09375 16.65625 -1.0625 L 16.65625 -7.921875 L 26.140625 -24.671875 C 26.265625 -24.890625 26.296875 -25.140625 26.234375 -25.390625 C 26.140625 -25.640625 25.921875 -25.796875 25.671875 -25.796875 Z M 25.671875 -25.796875 "/></g></g></g><g fill="#0c80d7" fill-opacity="1"><g transform="translate(215.412512, 41.180145)"><g><path d="M 17.625 -15.402344 L 8.234375 -15.402344 C 7.765625 -15.402344 7.167969 -15.589844 7.167969 -17.125 L 7.167969 -19.441406 C 7.167969 -20.003906 7.261719 -20.445312 7.417969 -20.757812 C 7.546875 -20.945312 7.734375 -21.164062 8.265625 -21.164062 L 21.007812 -21.164062 C 21.257812 -21.164062 21.882812 -21.257812 21.882812 -22.226562 L 21.882812 -24.734375 C 21.882812 -25.703125 21.257812 -25.796875 21.007812 -25.796875 L 7.515625 -25.796875 C 5.792969 -25.796875 4.539062 -25.234375 3.726562 -24.074219 C 2.910156 -22.949219 2.503906 -21.445312 2.503906 -19.628906 L 2.503906 -17.25 C 2.503906 -15.089844 2.941406 -13.335938 3.726562 -12.242188 C 4.695312 -10.957031 6.136719 -10.769531 7.449219 -10.769531 L 16.84375 -10.769531 C 17.3125 -10.769531 17.9375 -10.582031 17.9375 -9.046875 L 17.9375 -6.355469 C 17.9375 -5.792969 17.84375 -5.355469 17.65625 -5.039062 C 17.53125 -4.851562 17.34375 -4.632812 16.8125 -4.632812 L 3.445312 -4.632812 C 3.160156 -4.632812 2.535156 -4.539062 2.535156 -3.570312 L 2.535156 -1.0625 C 2.535156 -0.09375 3.160156 0 3.445312 0 L 17.5625 0 C 19.285156 0 20.570312 -0.59375 21.382812 -1.753906 C 22.164062 -2.878906 22.574219 -4.351562 22.574219 -6.167969 L 22.574219 -8.921875 C 22.574219 -10.957031 22.164062 -12.554688 21.351562 -13.679688 C 20.507812 -14.808594 19.253906 -15.402344 17.625 -15.402344 Z M 17.625 -15.402344 "/></g></g></g><g clip-path="url(#3294c1b2ac)"><path fill="#0c80d7" d="M 41.824219 19.550781 C 40.253906 20.914062 37.917969 22.414062 35.019531 23.894531 L 36.449219 27.816406 C 39.1875 26.335938 41.523438 24.742188 43.136719 23.15625 L 41.824219 19.550781 " fill-opacity="1" fill-rule="nonzero"/></g><path fill="#0c80d7" d="M 29.128906 22.367188 C 31.984375 21.058594 34.570312 19.601562 36.53125 18.140625 L 35.28125 14.703125 C 33.476562 16.027344 30.914062 17.453125 27.828125 18.792969 L 29.128906 22.367188 " fill-opacity="1" fill-rule="nonzero"/><path fill="#0c80d7" d="M 21.144531 14.484375 L 22.246094 17.507812 C 24.433594 16.6875 26.613281 15.667969 28.5625 14.476562 C 28.652344 14.425781 28.738281 14.371094 28.824219 14.316406 L 27.78125 11.453125 C 26.070312 12.492188 23.769531 13.574219 21.144531 14.484375 " fill-opacity="1" fill-rule="nonzero"/><path fill="#0c80d7" d="M 38.75 39.097656 C 36.738281 40.078125 34.480469 41.035156 32.042969 41.925781 L 33.066406 44.734375 C 35.398438 43.859375 37.667969 42.84375 39.714844 41.746094 L 38.75 39.097656 " fill-opacity="1" fill-rule="nonzero"/><g clip-path="url(#356b534982)"><path fill="#0c80d7" d="M 42.332031 29.109375 C 39.925781 30.628906 36.828125 32.214844 33.253906 33.695312 L 34.640625 37.5 C 38.058594 36.042969 41.195312 34.367188 43.601562 32.597656 L 42.332031 29.109375 " fill-opacity="1" fill-rule="nonzero"/></g><path fill="#0c80d7" d="M 33.488281 24.648438 C 31.234375 25.722656 28.703125 26.769531 25.96875 27.726562 L 27.453125 31.804688 C 30.054688 30.859375 32.605469 29.777344 34.929688 28.609375 L 33.488281 24.648438 " fill-opacity="1" fill-rule="nonzero"/><path fill="#0c80d7" d="M 24.242188 41.039062 C 27.164062 40.28125 30.1875 39.292969 33.070312 38.144531 L 31.679688 34.332031 C 28.953125 35.398438 25.984375 36.394531 22.863281 37.253906 L 24.242188 41.039062 " fill-opacity="1" fill-rule="nonzero"/><path fill="#0c80d7" d="M 30.441406 42.492188 C 28.511719 43.148438 26.484375 43.761719 24.386719 44.300781 C 19.441406 45.503906 13.054688 46.539062 10.699219 44.652344 C 11.328125 45.265625 12.203125 46.046875 12.871094 46.617188 L 13.617188 47.179688 C 16.246094 49.042969 23.972656 47.910156 31.46875 45.3125 L 30.441406 42.492188 " fill-opacity="1" fill-rule="nonzero"/><g clip-path="url(#d9db513b5a)"><path fill="#0c80d7" d="M 30.664062 50.734375 C 28.757812 51.191406 27.628906 51.355469 26.199219 51.375 C 26.878906 51.386719 26.929688 51.382812 28.167969 51.320312 C 28.730469 51.277344 28.789062 51.269531 29.75 51.148438 C 30.183594 51.082031 30.214844 51.078125 31.011719 50.925781 C 31.375 50.851562 31.402344 50.84375 32.082031 50.675781 C 32.410156 50.59375 32.421875 50.589844 33.046875 50.40625 C 33.351562 50.308594 33.363281 50.308594 33.957031 50.105469 C 34.257812 49.996094 34.257812 49.996094 34.855469 49.761719 C 35.167969 49.636719 35.167969 49.636719 35.789062 49.359375 C 36.132812 49.199219 36.132812 49.199219 36.8125 48.855469 C 38.539062 47.953125 39.773438 46.988281 40.511719 46.410156 C 39.707031 47.03125 36.625 49.183594 30.664062 50.734375 " fill-opacity="1" fill-rule="nonzero"/></g><g clip-path="url(#0e349e53d5)"><path fill="#0c80d7" d="M 6.867188 34.820312 C 10.585938 36.199219 18.292969 34.917969 25.851562 32.363281 L 24.359375 28.273438 C 22.652344 28.832031 20.878906 29.351562 19.054688 29.820312 C 10.421875 31.925781 4.847656 31.6875 4.503906 29.195312 L 4.503906 29.59375 C 4.546875 30.554688 4.664062 31.835938 4.777344 32.789062 C 4.914062 33.3125 5.140625 34.183594 6.867188 34.820312 " fill-opacity="1" fill-rule="nonzero"/></g><path fill="#0c80d7" d="M 21.214844 37.691406 C 12.851562 39.710938 7.347656 39.664062 6.105469 37.5625 C 6.515625 38.964844 7.101562 40.652344 8.484375 41.664062 C 10.636719 43.230469 16.226562 42.9375 22.585938 41.449219 L 21.214844 37.691406 " fill-opacity="1" fill-rule="nonzero"/><path fill="#0c80d7" d="M 12.410156 27.242188 C 16.871094 26.839844 22.523438 25.203125 27.574219 23.054688 L 26.257812 19.445312 C 23.703125 20.46875 20.851562 21.417969 17.816406 22.195312 C 11.34375 23.78125 5.21875 24.042969 6.113281 21.0625 C 6.113281 21.0625 5.226562 22.863281 5.089844 24.285156 C 4.769531 27.660156 9.992188 27.460938 12.410156 27.242188 " fill-opacity="1" fill-rule="nonzero"/><path fill="#0c80d7" d="M 20.644531 18.070312 L 19.53125 15.007812 C 18.933594 15.1875 18.320312 15.359375 17.699219 15.519531 C 16.496094 15.816406 14.6875 16.214844 12.902344 16.269531 C 11.867188 16.300781 8.65625 16.222656 10.824219 13.867188 C 10.117188 14.59375 10.078125 14.644531 9.007812 15.972656 L 8.714844 16.367188 C 8.457031 16.753906 8.195312 17.15625 8.09375 17.628906 C 7.492188 20.488281 13.859375 20.300781 20.644531 18.070312 " fill-opacity="1" fill-rule="nonzero"/><g clip-path="url(#f9b3da5fda)"><path fill="#0c80d7" d="M 21.625 11.679688 L 20.929688 9.773438 C 20.28125 10.0625 19.53125 10.328125 18.757812 10.519531 C 17.171875 10.921875 16.640625 10.710938 16.515625 10.636719 C 15.964844 10.308594 17.0625 9.335938 19.515625 8.457031 C 16.542969 9.378906 13.679688 11.25 13.507812 12.382812 C 13.257812 14.042969 17.902344 13.386719 21.625 11.679688 " fill-opacity="1" fill-rule="nonzero"/></g><path fill="#0c80d7" d="M 36.714844 45.679688 C 34.609375 46.582031 32.226562 47.445312 29.648438 48.203125 L 30.261719 49.886719 C 32.628906 49.230469 35.070312 48.316406 37.289062 47.25 L 36.714844 45.679688 " fill-opacity="1" fill-rule="nonzero"/><path fill="#0c80d7" d="M 28.007812 48.660156 C 27.871094 48.695312 27.734375 48.730469 27.597656 48.765625 C 20.453125 50.496094 18.242188 49.695312 17.515625 49.433594 C 18.019531 49.652344 18.703125 49.910156 19.214844 50.113281 C 19.898438 50.335938 20.824219 50.601562 21.519531 50.789062 C 23.375 51.136719 25.894531 50.914062 28.605469 50.300781 L 28.007812 48.660156 " fill-opacity="1" fill-rule="nonzero"/></svg>